# xmcd
#
# Track frame offsets: 
#        150
#        11066
#        27693
#        39927
#        49173
#        63124
#        80335
#        96798
#        113411
#        127335
#        146135
#        160225
#        178526
#
# Disc length: 2555 seconds
#
# Revision: 0
# Processed by: cddbd v1.5.1PL0 Copyright (c) Steve Scherf et al.
# Submitted via: ExactAudioCopy v0.95a5
#
DISCID=ab09f90d
DTITLE=Jeff Cook and the Alabama Goodtime Band - Just Pickin'
DYEAR=2002
DGENRE=Country
TTITLE0=Just Pickin'
TTITLE1=Night Train
TTITLE2=Hide Away
TTITLE3=Your Cheating Heart
TTITLE4=Ram Bunk Shush
TTITLE5=Sleep Walk
TTITLE6=Honky Tonk - part 3
TTITLE7=Spooky
TTITLE8=Walk Don't Run - Millennium
TTITLE9=The Woman He Loves
TTITLE10=Lisa Jane
TTITLE11=Love Will Keep Us Alive
TTITLE12=Memphis
EXTD=
EXTT0=
EXTT1=
EXTT2=
EXTT3=
EXTT4=
EXTT5=
EXTT6=
EXTT7=
EXTT8=
EXTT9=
EXTT10=
EXTT11=
EXTT12=
PLAYORDER=
